<svg id="visual" viewBox="0 0 960 130" width="960" height="130" xmlns="http://www.w3.org/2000/svg" xmlns:xlink="http://www.w3.org/1999/xlink" version="1.1"><path d="M0 18L80 18L80 15L160 15L160 24L240 24L240 19L320 19L320 21L400 21L400 15L480 15L480 11L560 11L560 26L640 26L640 24L720 24L720 13L800 13L800 26L880 26L880 11L960 11L960 14L960 0L960 0L880 0L880 0L800 0L800 0L720 0L720 0L640 0L640 0L560 0L560 0L480 0L480 0L400 0L400 0L320 0L320 0L240 0L240 0L160 0L160 0L80 0L80 0L0 0Z" fill="#fa7267"></path><path d="M0 39L80 39L80 32L160 32L160 36L240 36L240 30L320 30L320 32L400 32L400 31L480 31L480 23L560 23L560 45L640 45L640 36L720 36L720 32L800 32L800 47L880 47L880 34L960 34L960 36L960 12L960 9L880 9L880 24L800 24L800 11L720 11L720 22L640 22L640 24L560 24L560 9L480 9L480 13L400 13L400 19L320 19L320 17L240 17L240 22L160 22L160 13L80 13L80 16L0 16Z" fill="#d4584c"></path><path d="M0 62L80 62L80 78L160 78L160 92L240 92L240 61L320 61L320 93L400 93L400 75L480 75L480 71L560 71L560 70L640 70L640 84L720 84L720 88L800 88L800 87L880 87L880 83L960 83L960 61L960 34L960 32L880 32L880 45L800 45L800 30L720 30L720 34L640 34L640 43L560 43L560 21L480 21L480 29L400 29L400 30L320 30L320 28L240 28L240 34L160 34L160 30L80 30L80 37L0 37Z" fill="#ae3e33"></path><path d="M0 102L80 102L80 99L160 99L160 119L240 119L240 97L320 97L320 113L400 113L400 105L480 105L480 105L560 105L560 112L640 112L640 109L720 109L720 108L800 108L800 117L880 117L880 114L960 114L960 100L960 59L960 81L880 81L880 85L800 85L800 86L720 86L720 82L640 82L640 68L560 68L560 69L480 69L480 73L400 73L400 91L320 91L320 59L240 59L240 90L160 90L160 76L80 76L80 60L0 60Z" fill="#8a241b"></path><path d="M0 131L80 131L80 131L160 131L160 131L240 131L240 131L320 131L320 131L400 131L400 131L480 131L480 131L560 131L560 131L640 131L640 131L720 131L720 131L800 131L800 131L880 131L880 131L960 131L960 131L960 98L960 112L880 112L880 115L800 115L800 106L720 106L720 107L640 107L640 110L560 110L560 103L480 103L480 103L400 103L400 111L320 111L320 95L240 95L240 117L160 117L160 97L80 97L80 100L0 100Z" fill="#670700"></path></svg>