<svg id="visual" viewBox="0 0 960 130" width="960" height="130" xmlns="http://www.w3.org/2000/svg" xmlns:xlink="http://www.w3.org/1999/xlink" version="1.1"><path d="M0 30L64 30L64 43L128 43L128 50L192 50L192 40L256 40L256 52L320 52L320 19L384 19L384 31L448 31L448 43L512 43L512 61L576 61L576 47L640 47L640 66L704 66L704 48L768 48L768 18L832 18L832 34L896 34L896 28L960 28L960 57L960 0L960 0L896 0L896 0L832 0L832 0L768 0L768 0L704 0L704 0L640 0L640 0L576 0L576 0L512 0L512 0L448 0L448 0L384 0L384 0L320 0L320 0L256 0L256 0L192 0L192 0L128 0L128 0L64 0L64 0L0 0Z" fill="#b0235f"></path><path d="M0 67L64 67L64 74L128 74L128 93L192 93L192 82L256 82L256 80L320 80L320 100L384 100L384 97L448 97L448 82L512 82L512 97L576 97L576 92L640 92L640 79L704 79L704 76L768 76L768 70L832 70L832 89L896 89L896 73L960 73L960 80L960 55L960 26L896 26L896 32L832 32L832 16L768 16L768 46L704 46L704 64L640 64L640 45L576 45L576 59L512 59L512 41L448 41L448 29L384 29L384 17L320 17L320 50L256 50L256 38L192 38L192 48L128 48L128 41L64 41L64 28L0 28Z" fill="#cb3d62"></path><path d="M0 101L64 101L64 84L128 84L128 110L192 110L192 112L256 112L256 87L320 87L320 123L384 123L384 113L448 113L448 99L512 99L512 123L576 123L576 109L640 109L640 100L704 100L704 100L768 100L768 93L832 93L832 102L896 102L896 95L960 95L960 106L960 78L960 71L896 71L896 87L832 87L832 68L768 68L768 74L704 74L704 77L640 77L640 90L576 90L576 95L512 95L512 80L448 80L448 95L384 95L384 98L320 98L320 78L256 78L256 80L192 80L192 91L128 91L128 72L64 72L64 65L0 65Z" fill="#e45765"></path><path d="M0 131L64 131L64 131L128 131L128 131L192 131L192 131L256 131L256 131L320 131L320 131L384 131L384 131L448 131L448 131L512 131L512 131L576 131L576 131L640 131L640 131L704 131L704 131L768 131L768 131L832 131L832 131L896 131L896 131L960 131L960 131L960 104L960 93L896 93L896 100L832 100L832 91L768 91L768 98L704 98L704 98L640 98L640 107L576 107L576 121L512 121L512 97L448 97L448 111L384 111L384 121L320 121L320 85L256 85L256 110L192 110L192 108L128 108L128 82L64 82L64 99L0 99Z" fill="#fa7268"></path></svg>